<svg viewBox="0 0 32 32" xmlns="http://www.w3.org/2000/svg"><path fill="#fff" d="M16.04 3C9.42 3 4.05 8.35 4.05 14.95c0 2.1.55 4.15 1.6 5.95L4 27l6.27-1.64a12.02 12.02 0 0 0 5.77 1.47c6.62 0 11.99-5.35 11.99-11.95C28.03 8.35 22.66 3 16.04 3Zm0 21.77c-1.78 0-3.52-.48-5.03-1.4l-.36-.22-3.72.98.99-3.62-.24-.37a9.77 9.77 0 0 1-1.5-5.2c0-5.43 4.42-9.84 9.86-9.84s9.86 4.41 9.86 9.84-4.42 9.83-9.86 9.83Zm5.4-7.36c-.3-.15-1.75-.86-2.02-.96-.27-.1-.47-.15-.67.15-.2.3-.77.96-.95 1.16-.17.2-.35.22-.64.07-.3-.15-1.25-.46-2.38-1.47-.88-.78-1.47-1.75-1.65-2.04-.17-.3-.02-.46.13-.6.13-.13.3-.35.45-.52.15-.18.2-.3.3-.5.1-.2.05-.37-.02-.52-.08-.15-.67-1.62-.92-2.22-.24-.58-.49-.5-.67-.51h-.57c-.2 0-.52.07-.8.37-.27.3-1.05 1.03-1.05 2.51 0 1.48 1.08 2.91 1.23 3.11.15.2 2.13 3.25 5.16 4.55.72.31 1.28.5 1.72.64.72.23 1.38.2 1.9.12.58-.09 1.75-.72 2-1.41.25-.7.25-1.3.17-1.42-.07-.13-.27-.2-.57-.35Z"/></svg>
